<?xml version="1.0" encoding="UTF-8"?>
<!DOCTYPE svg PUBLIC "-//W3C//DTD SVG 1.1//EN" "http://www.w3.org/Graphics/SVG/1.1/DTD/svg11.dtd">
<!-- Creator: CorelDRAW 2018 (64-Bit Evaluation Version) -->
<svg xmlns="http://www.w3.org/2000/svg" xml:space="preserve" width="161.491mm" height="140.593mm" version="1.1" style="shape-rendering:geometricPrecision; text-rendering:geometricPrecision; image-rendering:optimizeQuality; fill-rule:evenodd; clip-rule:evenodd"
viewBox="0 0 4368.33 3803.03"
 xmlns:xlink="http://www.w3.org/1999/xlink">
 <defs>
  <style type="text/css">
   <![CDATA[
    .fil0 {fill:#4455EE}
    .fil2 {fill:#9853EE}
    .fil1 {fill:#AAAAAA}
   ]]>
  </style>
 </defs>
 <g id="Layer_x0020_1">
  <metadata id="CorelCorpID_0Corel-Layer"/>
  <path class="fil0" d="M189.35 1052.58l772.65 0c104.14,0 189.35,85.21 189.35,189.35l0 2371.74c0,104.14 -85.21,189.35 -189.35,189.35l-772.65 0c-104.14,0 -189.35,-85.21 -189.35,-189.35l0 -2371.74c0,-104.14 85.21,-189.35 189.35,-189.35zm-13.99 297.66l794.42 0 0 171.77 -794.42 0 0 -171.77zm3.58 2003.96l794.42 0 0 171.77 -794.42 0 0 -171.77z"/>
  <path class="fil1" d="M1718.71 0l773.58 0c104.14,0 189.35,85.21 189.35,189.35l0 3424.33c0,104.14 -85.21,189.35 -189.35,189.35l-773.58 0c-104.14,0 -189.35,-85.21 -189.35,-189.35l0 -3424.33c0,-104.14 85.21,-189.35 189.35,-189.35zm-17.99 347.45l781.9 0 0 162.82 -781.9 0 0 -162.82zm15.2 2952.83l781.9 0 0 162.82 -781.9 0 0 -162.82z"/>
  <path class="fil2" d="M3227.86 3607.75c-208.76,-1726.63 -313.14,-2589.94 -313.14,-2589.94 -16.76,-179.92 10.08,-246.13 150.3,-279.12l730.01 -87.67c165.74,-18.28 252.44,65.22 257.28,226.64 211.63,1785.66 316.02,2666.56 316.02,2666.56 -1.73,110.08 -53.86,173 -156.38,188.77 -453.28,45.33 -679.92,67.99 -679.92,67.99 -173.74,14.63 -275.13,-49.78 -304.17,-193.24zm-104.83 -2399.36l-12.52 -164.61 771.17 -76.94 14.31 164.61 -772.96 76.94zm269.27 2269.65l-12.52 -164.61 771.17 -76.94 14.31 164.61 -772.96 76.94z"/>
 </g>
</svg>
